# xmcd
#
# Track frame offsets: 
#        150
#        24445
#        39030
#        58857
#        81615
#        98770
#        126082
#        139195
#        159605
#        180382
#
# Disc length: 2780 seconds
#
# Revision: 1
# Processed by: cddbd v1.5.2PL0 Copyright (c) Steve Scherf et al.
# Submitted via: ExactAudioCopy v0.99pb3
#
DISCID=7d0ada0a
DTITLE=Justo Betancourt - Distinto Y Diferente
DYEAR=1977
DGENRE=Salsa
TTITLE0=Distinto Y Diferente
TTITLE1=Nuestro Juego
TTITLE2=Borincuba
TTITLE3=Recuerdos De Panama
TTITLE4=Flores De Olvido
TTITLE5=No Estas En Nada
TTITLE6=La Vida Mia
TTITLE7=Soy Profesional
TTITLE8=Belen
TTITLE9=Oyela
EXTD=YEAR: 1977
EXTT0=
EXTT1=
EXTT2=
EXTT3=
EXTT4=
EXTT5=
EXTT6=
EXTT7=
EXTT8=
EXTT9=
PLAYORDER=
